<?xml version="1.0" encoding="UTF-8"?>
<!DOCTYPE svg PUBLIC "-//W3C//DTD SVG 1.1//EN" "http://www.w3.org/Graphics/SVG/1.1/DTD/svg11.dtd">
<!-- Creator: CorelDRAW X7 -->
<svg xmlns="http://www.w3.org/2000/svg" xml:space="preserve" width="25.3998mm" height="5.9266mm" version="1.1" style="shape-rendering:geometricPrecision; text-rendering:geometricPrecision; image-rendering:optimizeQuality; fill-rule:evenodd; clip-rule:evenodd"
viewBox="0 0 2540 593"
 xmlns:xlink="http://www.w3.org/1999/xlink">
 <defs>
  <style type="text/css">
   <![CDATA[
    .fil1 {fill:black;fill-rule:nonzero}
    .fil0 {fill:#3FD0D4;fill-rule:nonzero}
   ]]>
  </style>
 </defs>
 <g id="Layer_x0020_1">
  <metadata id="CorelCorpID_0Corel-Layer"/>
  <path class="fil0" d="M188 141c28,0 50,8 65,26 14,17 22,41 22,73 0,16 -2,33 -6,50 -4,17 -10,34 -17,50 -7,16 -15,30 -25,44 -11,14 -22,27 -34,37 -13,11 -27,19 -41,25 -14,6 -30,9 -46,9 -29,0 -50,-8 -64,-26 -14,-17 -21,-41 -21,-73 0,-17 2,-34 5,-51 4,-18 10,-34 17,-50 7,-16 15,-31 25,-45 10,-14 21,-26 33,-36 13,-10 26,-18 41,-24 14,-6 29,-9 46,-9zm-64 281c10,-1 19,-5 28,-12 8,-7 16,-16 23,-27 7,-10 13,-22 18,-34 5,-13 9,-26 13,-39 3,-14 6,-27 8,-39 2,-13 2,-24 2,-34 0,-9 0,-18 -2,-25 -1,-8 -4,-15 -7,-21 -4,-5 -8,-10 -14,-13 -5,-3 -12,-5 -20,-5 -8,0 -16,3 -23,8 -8,6 -15,13 -22,22 -7,10 -13,20 -19,32 -6,12 -11,25 -15,38 -4,13 -7,26 -10,39 -2,14 -3,26 -3,38 0,11 1,21 2,30 2,9 4,17 8,24 3,7 8,12 13,15 6,4 12,5 20,3z"/>
  <path id="1" class="fil0" d="M469 235c6,1 11,2 16,5 5,3 7,8 7,16 0,4 0,9 -1,13 -1,5 -2,10 -4,16 -2,10 -5,19 -8,28 -2,10 -5,19 -7,28 -2,9 -4,17 -5,25 -2,8 -3,16 -3,23 0,4 1,7 1,11 0,4 2,5 4,5 2,0 6,-1 10,-5 5,-3 9,-7 13,-11 5,-4 9,-8 12,-12 4,-3 6,-5 7,-5 2,0 2,1 2,3 0,7 -2,15 -7,23 -4,9 -10,16 -17,23 -7,7 -14,13 -22,18 -8,5 -16,7 -23,7 -11,0 -19,-3 -25,-10 -6,-7 -9,-17 -9,-31 0,-6 0,-11 1,-15 0,-5 1,-10 2,-15 -15,24 -30,43 -44,56 -15,12 -30,19 -46,19 -7,0 -13,-2 -18,-4 -4,-2 -8,-5 -10,-9 -2,-4 -4,-8 -5,-13 -1,-5 -1,-9 -1,-14 0,-5 1,-12 2,-20 2,-7 3,-16 5,-25 2,-10 5,-19 7,-29 2,-10 4,-19 7,-29 2,-9 3,-18 5,-25 1,-8 2,-14 2,-19 0,-3 0,-7 -1,-10 0,-4 -1,-7 -3,-10 7,-3 14,-5 20,-6 7,-1 13,-2 18,-2 9,0 15,2 18,6 3,4 5,9 5,15 0,4 -1,8 -2,12 -1,5 -2,8 -2,12 -3,14 -6,27 -9,39 -3,12 -6,23 -9,33 -2,10 -4,19 -5,27 -2,8 -3,14 -3,19 0,3 1,5 2,7 1,2 3,3 6,3 2,0 6,-2 10,-5 4,-3 9,-7 14,-13 5,-6 10,-13 16,-21 5,-8 11,-17 16,-26 10,-18 17,-35 22,-50 5,-16 8,-29 8,-39 0,-2 0,-5 -1,-7 0,-2 -1,-4 -2,-7 5,-1 11,-3 17,-4 6,-1 12,-1 17,-1z"/>
  <path id="2" class="fil0" d="M651 256c0,9 -3,16 -9,22 -6,6 -14,9 -23,9 -4,0 -7,0 -9,0 -3,0 -6,0 -9,0 -2,0 -3,0 -5,0 -1,0 -3,0 -4,0 -2,10 -5,19 -7,30 -2,10 -4,20 -7,31 -2,6 -3,12 -5,20 -1,8 -2,15 -2,21 1,12 6,19 16,19 2,0 5,-2 9,-5 3,-3 7,-6 10,-10 13,-13 21,-20 24,-20 1,0 2,1 2,4 0,7 -2,14 -7,23 -4,8 -10,15 -17,22 -7,7 -14,13 -22,18 -8,5 -16,7 -23,7 -16,0 -28,-4 -34,-13 -7,-9 -11,-22 -11,-37 0,-4 1,-8 1,-12 1,-4 1,-8 2,-12 1,-6 2,-11 2,-15 1,-4 2,-8 3,-13 0,-4 1,-9 3,-14 1,-5 2,-12 4,-20 3,-8 5,-16 7,-25 2,-9 4,-18 5,-26 2,-9 3,-17 4,-24 1,-8 2,-14 2,-20 0,-4 0,-7 -1,-10 0,-4 -2,-7 -3,-11 8,-5 15,-8 22,-10 7,-2 13,-3 20,-3 6,0 10,2 14,5 3,3 5,8 5,14 0,-1 -1,4 -2,13 -2,9 -4,23 -8,42l17 0c6,0 11,0 17,0 6,-1 13,-1 19,-2l0 2z"/>
  <path id="3" class="fil0" d="M851 393c12,-13 20,-20 23,-20 2,0 3,1 3,4 0,7 -3,15 -7,23 -5,8 -10,15 -17,22 -7,7 -15,13 -23,18 -8,5 -15,7 -22,7 -12,0 -20,-3 -26,-10 -6,-7 -9,-18 -9,-32 0,-5 0,-10 1,-16 0,-6 1,-10 1,-14 -16,26 -32,45 -47,57 -16,11 -31,17 -44,17 -12,0 -22,-4 -29,-14 -7,-9 -10,-22 -10,-37 0,-18 3,-37 10,-56 6,-19 15,-37 27,-52 11,-16 24,-29 39,-39 14,-10 30,-15 46,-15 8,0 15,1 20,3 6,2 12,4 18,7 6,-23 9,-43 9,-59 0,-4 -1,-7 -1,-9 -1,-3 -2,-6 -3,-9 6,-3 13,-6 20,-8 7,-2 14,-3 19,-3 15,0 22,7 22,22 0,5 0,11 -1,17 -2,6 -3,12 -4,17 -5,21 -10,40 -14,58 -5,18 -9,34 -12,49 -4,15 -7,28 -9,39 -2,12 -3,22 -3,30 0,4 0,7 1,10 1,2 2,4 3,6 2,0 5,-2 8,-4 3,-3 7,-6 11,-9zm-91 -36c7,-11 13,-22 19,-33 6,-11 11,-21 16,-32 -1,-8 -5,-14 -11,-19 -6,-5 -13,-7 -20,-7 -8,0 -15,4 -23,11 -7,8 -14,18 -20,29 -6,12 -11,25 -14,40 -4,14 -6,28 -6,42 1,14 5,20 13,20 5,0 11,-4 20,-13 8,-9 17,-21 26,-38z"/>
  <path id="4" class="fil0" d="M911 277c13,-13 26,-24 41,-32 15,-7 30,-11 48,-11 21,0 38,6 51,18 13,12 20,29 20,51 0,18 -4,36 -10,54 -7,17 -16,33 -27,47 -12,13 -25,25 -40,33 -16,8 -32,13 -49,13 -22,0 -39,-7 -52,-19 -13,-13 -19,-31 -19,-54 0,-18 3,-36 9,-53 7,-17 16,-32 28,-47zm102 26c0,-12 -2,-21 -6,-29 -3,-8 -10,-11 -19,-11 -9,0 -16,4 -24,12 -7,8 -13,18 -18,30 -5,12 -8,25 -11,39 -3,14 -4,27 -4,38 0,11 2,21 6,28 4,8 10,11 19,11 9,0 17,-4 24,-12 7,-8 13,-18 17,-30 5,-12 9,-25 12,-39 2,-14 4,-26 4,-37z"/>
  <path id="5" class="fil0" d="M1119 277c12,-13 26,-24 40,-32 15,-7 31,-11 48,-11 21,0 38,6 52,18 13,12 19,29 19,51 0,18 -3,36 -10,54 -6,17 -15,33 -27,47 -11,13 -24,25 -40,33 -15,8 -31,13 -49,13 -21,0 -38,-7 -51,-19 -13,-13 -20,-31 -20,-54 0,-18 4,-36 10,-53 6,-17 16,-32 28,-47zm101 26c0,-12 -1,-21 -5,-29 -4,-8 -10,-11 -20,-11 -8,0 -16,4 -23,12 -7,8 -13,18 -18,30 -5,12 -9,25 -11,39 -3,14 -5,27 -5,38 0,11 2,21 6,28 4,8 11,11 20,11 9,0 16,-4 23,-12 7,-8 13,-18 18,-30 5,-12 9,-25 11,-39 3,-14 4,-26 4,-37z"/>
  <path id="6" class="fil0" d="M1438 391c15,-15 23,-22 27,-21 3,1 1,10 -7,26 -3,7 -8,13 -13,19 -6,6 -12,12 -18,17 -6,4 -13,8 -19,11 -7,3 -13,5 -18,5 -11,0 -19,-3 -26,-9 -6,-6 -8,-15 -7,-28 1,-4 1,-8 2,-13 1,-5 2,-10 4,-15 1,-5 2,-9 4,-14 1,-4 2,-8 4,-12 1,-3 2,-8 5,-16 2,-7 4,-14 7,-22 3,-8 5,-15 7,-22 2,-6 4,-10 4,-12 1,-4 2,-7 3,-9 0,-2 -1,-3 -4,-2 -2,0 -6,1 -13,2 -7,1 -14,1 -21,1 -1,4 -3,9 -5,14 -3,6 -5,12 -9,19 -4,6 -8,12 -12,18 -4,5 -8,10 -13,13 -5,4 -10,6 -16,8 -5,1 -11,1 -16,-1 10,-12 17,-23 21,-34 5,-10 7,-23 8,-37 -6,-2 -10,-6 -13,-10 -2,-4 -4,-8 -4,-13 0,-4 1,-9 3,-14 2,-5 4,-9 7,-13 3,-3 6,-6 9,-8 4,-2 7,-3 10,-3 0,2 -1,4 -2,7 -1,2 -1,4 -1,7 0,2 1,5 3,7 2,2 6,3 11,4 6,1 14,2 24,1 10,-1 23,-2 39,-5 3,-1 7,-2 12,-3 5,0 9,-1 14,0 4,0 9,1 12,4 4,2 7,6 8,12 1,7 1,14 0,21 -1,6 -2,13 -5,20 -2,7 -5,14 -7,21 -3,7 -5,14 -8,20 -3,12 -6,22 -9,31 -3,9 -5,18 -6,25 0,4 0,8 0,12 0,4 2,6 4,5 2,0 5,-1 8,-4 4,-3 8,-6 12,-10z"/>
  <path id="7" class="fil1" d="M1679 185c-2,0 -5,0 -7,-1 -3,0 -5,0 -8,0 -11,0 -20,1 -28,4 -7,2 -14,5 -19,7 -4,3 -7,4 -10,4 0,-3 -1,-5 -1,-8 0,-2 0,-5 0,-7 0,-14 3,-23 10,-30 6,-6 16,-9 29,-9 20,0 39,0 59,1 19,0 38,0 57,0 8,0 15,0 20,-1 6,0 12,-1 17,-2 5,-1 9,-2 13,-3 4,-1 9,-2 13,-2 0,2 1,4 1,5 -1,15 -5,26 -12,33 -7,6 -16,10 -28,10 -2,0 -5,0 -8,0 -4,-1 -7,-1 -11,-1 -4,0 -8,0 -11,-1 -4,0 -7,0 -9,0 -3,0 -6,1 -8,2 -2,0 -3,2 -4,5 -2,10 -5,22 -8,35 -3,14 -7,29 -11,45 -3,17 -7,33 -11,50 -4,17 -8,33 -11,48 -2,9 -3,17 -5,26 -1,9 -2,17 -2,24 0,5 0,8 1,11 1,3 2,7 4,11 -6,4 -14,7 -22,9 -8,1 -15,2 -20,2 -16,0 -24,-6 -24,-19 0,-4 0,-10 1,-16 1,-7 3,-15 5,-24 0,-2 2,-8 4,-18 2,-9 5,-21 9,-35 3,-13 6,-28 10,-43 4,-16 7,-31 10,-45 4,-13 6,-26 9,-36 2,-11 4,-18 4,-21 1,-2 1,-4 2,-5 0,-2 0,-4 0,-5z"/>
  <path id="8" class="fil1" d="M1788 277c13,-13 26,-24 41,-32 15,-7 30,-11 48,-11 21,0 38,6 51,18 13,12 20,29 20,51 0,18 -4,36 -10,54 -7,17 -16,33 -27,47 -12,13 -25,25 -40,33 -16,8 -32,13 -49,13 -22,0 -39,-7 -52,-19 -13,-13 -19,-31 -19,-54 0,-18 3,-36 9,-53 7,-17 16,-32 28,-47zm102 26c0,-12 -2,-21 -6,-29 -3,-8 -10,-11 -19,-11 -9,0 -16,4 -24,12 -7,8 -13,18 -18,30 -5,12 -8,25 -11,39 -3,14 -4,27 -4,38 0,11 2,21 6,28 4,8 10,11 19,11 9,0 17,-4 24,-12 7,-8 13,-18 17,-30 5,-12 9,-25 12,-39 2,-14 4,-26 4,-37z"/>
  <path id="9" class="fil1" d="M2145 235c7,1 12,2 17,5 5,3 7,8 7,16 0,4 0,9 -1,13 -1,5 -2,10 -4,16 -2,10 -5,19 -8,28 -3,10 -5,19 -7,28 -2,9 -4,17 -6,25 -1,8 -2,16 -2,23 0,4 0,7 1,11 0,4 1,5 3,5 3,0 7,-1 11,-5 4,-3 9,-7 13,-11 5,-4 8,-8 12,-12 3,-3 6,-5 7,-5 1,0 2,1 2,3 0,7 -2,15 -7,23 -4,9 -10,16 -17,23 -7,7 -14,13 -22,18 -8,5 -16,7 -23,7 -11,0 -19,-3 -25,-10 -6,-7 -10,-17 -10,-31 0,-6 1,-11 1,-15 1,-5 2,-10 3,-15 -15,24 -30,43 -45,56 -14,12 -30,19 -45,19 -8,0 -14,-2 -18,-4 -4,-2 -8,-5 -10,-9 -3,-4 -4,-8 -5,-13 -1,-5 -1,-9 -1,-14 0,-5 1,-12 2,-20 1,-7 3,-16 5,-25 2,-10 4,-19 7,-29 2,-10 4,-19 6,-29 2,-9 4,-18 6,-25 1,-8 2,-14 2,-19 0,-3 -1,-7 -1,-10 -1,-4 -2,-7 -3,-10 7,-3 14,-5 20,-6 7,-1 13,-2 18,-2 9,0 15,2 18,6 3,4 4,9 4,15 0,4 0,8 -1,12 -1,5 -2,8 -2,12 -4,14 -7,27 -10,39 -3,12 -5,23 -8,33 -2,10 -4,19 -6,27 -1,8 -2,14 -2,19 0,3 1,5 2,7 1,2 3,3 6,3 2,0 6,-2 10,-5 4,-3 9,-7 14,-13 5,-6 10,-13 16,-21 5,-8 10,-17 16,-26 10,-18 17,-35 22,-50 5,-16 8,-29 8,-39 0,-2 0,-5 -1,-7 0,-2 -1,-4 -2,-7 5,-1 11,-3 17,-4 6,-1 12,-1 16,-1z"/>
  <path id="10" class="fil1" d="M2336 391c15,-15 23,-22 27,-21 3,1 1,10 -7,26 -3,7 -8,13 -13,19 -6,6 -12,12 -18,17 -6,4 -13,8 -19,11 -7,3 -13,5 -18,5 -11,0 -19,-3 -26,-9 -6,-6 -8,-15 -7,-28 1,-4 1,-8 2,-13 1,-5 2,-10 4,-15 1,-5 2,-9 4,-14 1,-4 2,-8 3,-12 2,-3 3,-8 6,-16 2,-7 4,-14 7,-22 2,-8 5,-15 7,-22 2,-6 4,-10 4,-12 1,-4 2,-7 2,-9 1,-2 0,-3 -3,-2 -2,0 -6,1 -13,2 -7,1 -14,1 -21,1 -1,4 -3,9 -5,14 -3,6 -6,12 -9,19 -4,6 -8,12 -12,18 -4,5 -8,10 -13,13 -5,4 -10,6 -16,8 -5,1 -11,1 -16,-1 10,-12 17,-23 21,-34 5,-10 7,-23 8,-37 -6,-2 -10,-6 -13,-10 -2,-4 -4,-8 -4,-13 0,-4 1,-9 3,-14 2,-5 4,-9 7,-13 3,-3 6,-6 9,-8 4,-2 7,-3 10,-3 0,2 -1,4 -2,7 -1,2 -1,4 -1,7 0,2 1,5 3,7 2,2 6,3 11,4 6,1 14,2 24,1 10,-1 23,-2 39,-5 3,-1 7,-2 12,-3 5,0 9,-1 14,0 4,0 9,1 12,4 4,2 7,6 8,12 1,7 1,14 0,21 -1,6 -2,13 -5,20 -2,7 -5,14 -7,21 -3,7 -5,14 -8,20 -3,12 -6,22 -9,31 -3,9 -5,18 -6,25 0,4 0,8 0,12 0,4 1,6 4,5 2,0 5,-1 8,-4 4,-3 8,-6 12,-10z"/>
  <path id="11" class="fil1" d="M2482 252c-8,0 -14,3 -18,7 -3,4 -5,10 -5,18 0,3 1,7 3,11 2,3 4,7 7,11 4,5 8,10 12,15 4,5 8,10 11,16 3,5 6,10 8,16 2,6 3,13 3,20 0,11 -3,22 -8,32 -4,10 -11,19 -19,27 -9,7 -18,13 -29,17 -11,4 -22,6 -34,6 -6,0 -13,-1 -20,-3 -7,-2 -13,-5 -19,-9 -5,-4 -9,-9 -13,-15 -3,-6 -5,-13 -5,-20 0,-7 1,-12 5,-16 3,-4 7,-7 10,-10 3,6 5,12 8,18 3,5 7,10 11,15 3,4 8,7 13,10 4,2 10,4 16,4 9,0 16,-2 21,-8 6,-5 9,-12 9,-23 0,-5 -1,-9 -3,-13 -2,-4 -4,-8 -7,-11 -3,-4 -7,-8 -10,-12 -4,-4 -8,-8 -12,-12 -10,-12 -15,-26 -15,-42 0,-12 3,-23 9,-32 5,-9 13,-17 22,-23 9,-5 19,-10 30,-13 12,-2 23,-4 34,-4 7,0 12,1 15,3 4,1 6,4 7,9 0,4 -1,7 -3,11 -2,4 -6,8 -12,12 -7,-8 -15,-12 -22,-12z"/>
 </g>
</svg>
