<?xml version="1.0" encoding="UTF-8"?>
<!DOCTYPE svg PUBLIC "-//W3C//DTD SVG 1.1//EN" "http://www.w3.org/Graphics/SVG/1.1/DTD/svg11.dtd">
<!-- Creator: CorelDRAW X7 -->
<svg xmlns="http://www.w3.org/2000/svg" xml:space="preserve" width="16.9332mm" height="8.4666mm" version="1.1" style="shape-rendering:geometricPrecision; text-rendering:geometricPrecision; image-rendering:optimizeQuality; fill-rule:evenodd; clip-rule:evenodd"
viewBox="0 0 1693 847"
 xmlns:xlink="http://www.w3.org/1999/xlink">
 <defs>
  <style type="text/css">
   <![CDATA[
    .fil0 {fill:#40826D;fill-rule:nonzero}
   ]]>
  </style>
 </defs>
 <g id="Layer_x0020_1">
  <metadata id="CorelCorpID_0Corel-Layer"/>
  <g id="_627737184">
   <path class="fil0" d="M52 532c0,-8 4,-15 11,-20 8,-5 17,-9 28,-12 10,-3 22,-5 33,-7 12,-1 22,-1 30,-1 7,0 15,0 22,1 8,1 16,2 24,3 12,-9 25,-21 39,-36 14,-14 28,-30 42,-47 14,-17 28,-35 41,-53 13,-19 24,-38 34,-57 10,-19 18,-37 24,-55 6,-18 9,-35 9,-50 0,-21 -6,-37 -19,-49 -14,-12 -32,-18 -56,-18 -21,0 -40,5 -55,13 -16,9 -30,20 -40,33 -11,14 -19,28 -24,43 -6,16 -8,30 -8,43 0,15 3,26 8,36 6,9 14,14 26,14 13,0 24,-5 33,-14 9,-9 17,-20 23,-34l10 4c-8,16 -18,29 -31,39 -13,10 -26,15 -39,15 -21,0 -37,-6 -49,-18 -11,-12 -17,-27 -17,-45 0,-15 4,-31 11,-47 8,-17 18,-32 32,-46 14,-14 31,-25 51,-34 19,-9 41,-14 66,-14 32,0 58,9 77,26 19,17 28,40 28,70 0,13 -2,27 -5,42 -4,15 -9,31 -16,47 -7,17 -15,33 -25,50 -10,16 -21,33 -34,49 -15,19 -32,38 -50,55 -18,17 -36,33 -56,46 9,3 17,5 24,8 12,5 26,11 39,18 14,7 28,10 42,10 5,0 11,-2 16,-5 4,-4 7,-8 7,-14 0,-7 -3,-13 -9,-16 -5,-4 -11,-6 -18,-6l-2 0 0 -10c9,0 18,4 26,9 8,6 13,14 13,25 0,7 -2,13 -6,18 -4,4 -8,8 -14,10 -6,2 -12,4 -18,5 -7,1 -12,2 -18,2 -18,0 -37,-4 -57,-11 -19,-7 -39,-13 -59,-20 -16,9 -33,17 -50,22 -16,6 -32,9 -47,9 -3,0 -7,-1 -12,-1 -6,0 -11,-1 -16,-3 -5,-2 -9,-5 -13,-8 -4,-4 -6,-8 -6,-14zm42 17c12,0 24,-3 37,-9 13,-5 27,-13 41,-22 -9,-4 -18,-6 -27,-8 -8,-2 -16,-3 -23,-3 -5,0 -11,1 -17,2 -8,0 -14,2 -21,4 -7,2 -12,4 -17,8 -5,3 -7,7 -7,11 0,4 1,7 4,9 3,2 6,4 10,5 4,1 7,2 11,2 4,0 7,1 9,1z"/>
   <path id="1" class="fil0" d="M451 461c0,-14 2,-26 8,-37 5,-11 13,-21 23,-29 9,-8 21,-14 34,-19 13,-4 27,-6 43,-6l0 10c-22,0 -39,8 -52,23 -12,15 -19,35 -19,59 0,12 2,23 5,33 3,10 9,19 16,27 7,8 17,14 28,18 12,5 26,7 42,7 20,0 37,-3 53,-9 16,-6 29,-15 41,-26 11,-10 20,-23 26,-37 6,-14 9,-29 9,-45 0,-32 -12,-57 -35,-76 -23,-19 -56,-29 -97,-29l0 -10 3 0c10,0 21,-3 32,-9 12,-6 24,-13 35,-21 11,-8 22,-16 33,-25 10,-9 19,-17 27,-23 5,-3 12,-9 22,-16 10,-7 20,-15 31,-23 11,-9 22,-17 32,-27 10,-9 17,-18 22,-26 -10,6 -21,11 -32,15 -11,4 -23,6 -34,6 -13,0 -25,-1 -37,-3 -12,-3 -23,-5 -34,-8 -12,-3 -23,-5 -34,-8 -11,-2 -22,-3 -32,-3 -17,0 -31,3 -42,10 -11,7 -16,19 -16,35 0,13 4,23 11,31 8,9 18,13 31,13 12,0 22,-4 29,-10 7,-7 13,-16 18,-26l10 4c-7,14 -17,27 -29,37 -12,11 -26,16 -43,16 -17,0 -30,-5 -40,-15 -9,-10 -14,-23 -14,-40 0,-12 3,-23 8,-33 6,-10 14,-19 25,-26 10,-7 22,-13 36,-17 15,-4 31,-6 48,-6 21,0 43,2 65,7 23,4 45,6 68,6 9,0 18,0 27,-1 10,-1 19,-2 27,-4l0 4 0 5c-1,12 -5,25 -11,37 -7,12 -15,24 -24,35 -9,11 -19,22 -30,31 -11,10 -21,18 -30,25 -6,4 -14,9 -23,14 -9,5 -19,10 -31,15 -11,5 -22,10 -34,14 -12,5 -23,9 -34,12 20,2 38,7 54,13 17,7 31,15 42,24 11,10 20,21 26,34 6,13 10,28 10,43 0,18 -4,34 -13,50 -8,15 -19,28 -33,40 -14,11 -32,20 -52,27 -20,6 -41,10 -65,10 -21,0 -40,-3 -56,-8 -16,-5 -30,-12 -41,-21 -11,-9 -19,-19 -25,-31 -6,-12 -8,-24 -8,-37z"/>
   <path class="fil0" d="M931 456c0,0 -1,0 -1,0 0,-1 -1,-1 -1,-1 0,1 -2,4 -4,7 -18,35 -34,58 -47,69 -7,6 -14,9 -20,9 -5,0 -8,-1 -12,-4 -9,-7 -13,-18 -14,-33 0,-7 2,-15 5,-24 8,-20 19,-34 34,-42 7,-3 15,-5 23,-5 7,0 14,1 22,5 24,-44 49,-94 74,-152l1 -1c1,-1 2,-1 3,-1 3,0 7,2 11,5 3,3 4,5 3,7 -25,63 -48,128 -71,196 -23,69 -34,114 -34,135 0,1 0,2 0,4 1,1 1,2 1,3 -1,1 -2,2 -3,2 -4,0 -8,-2 -12,-6 -1,-2 -3,-4 -3,-5 0,-2 0,-5 0,-8 0,-22 13,-70 39,-144 2,-5 4,-10 6,-16zm-21 -8c-2,-1 -4,-1 -5,-1 -14,0 -27,8 -39,25 -10,13 -16,27 -18,41 0,1 0,3 0,4 0,3 1,6 2,9 12,-4 32,-30 60,-78z"/>
   <path id="1" class="fil0" d="M994 515c-2,1 -4,5 -4,11 0,6 2,9 5,10 3,1 7,2 10,2 21,0 50,-14 87,-41 9,-7 18,-14 25,-20 1,-1 1,-1 2,-1 3,0 7,2 10,7 2,3 3,5 3,7 0,1 -1,2 -1,2 -4,4 -13,11 -26,21 -37,26 -67,39 -90,40 -3,0 -5,-1 -6,-1 -21,-2 -32,-12 -34,-28 -1,-2 -1,-4 -1,-5 0,-15 7,-31 19,-48 12,-15 24,-24 36,-28 3,-1 6,-2 8,-2l1 0c8,0 14,4 20,10 3,5 5,9 5,14 0,3 -1,6 -3,9 -1,3 -4,6 -7,9 -3,3 -7,6 -11,8 -4,3 -8,5 -13,8 -4,2 -9,5 -13,6 -4,2 -7,4 -11,6 -3,1 -6,2 -8,3l-3 1zm14 -27c22,-11 34,-22 37,-31 -10,3 -20,11 -32,25 -2,2 -4,4 -5,6z"/>
   <path id="2" class="fil0" d="M1147 420c1,0 2,0 2,0 4,0 8,2 12,7 2,2 3,4 3,5 0,1 -1,2 -1,2 -17,10 -26,19 -29,27 -1,3 -2,6 -2,9 1,7 4,17 10,29 23,-10 47,-18 73,-24l1 0c4,0 8,3 12,7 1,3 2,4 2,6 0,1 -1,2 -2,2 -30,7 -56,16 -79,26 1,4 1,6 1,9 0,12 -10,22 -30,31 0,1 0,1 0,1 -8,3 -13,5 -16,5 -7,-1 -12,-5 -17,-13 -1,-2 -2,-4 -2,-6 1,-12 15,-25 45,-39 -8,-15 -12,-25 -14,-29 -1,-5 -2,-9 -2,-14 0,-14 11,-28 33,-41zm-35 119c6,-4 11,-7 15,-11 -6,4 -10,7 -15,11z"/>
   <path id="3" class="fil0" d="M1230 442c0,-1 1,-2 2,-2 4,0 8,2 12,7 2,2 3,4 3,6 0,0 0,1 0,1 -15,30 -22,53 -24,70 0,1 0,3 0,4 0,2 0,5 1,7l0 0c14,0 34,-13 60,-41 7,-7 13,-13 18,-19 1,-1 1,-1 2,-1 3,0 6,2 9,7 1,3 2,5 2,7 0,1 0,2 -1,3 -33,39 -59,59 -79,59 -2,0 -4,0 -7,-1 -8,-2 -14,-7 -18,-14 -3,-4 -4,-10 -4,-17 0,-17 8,-43 24,-76zm27 -11c-1,1 -2,1 -3,1 -3,0 -7,-2 -11,-6 -2,-2 -3,-4 -3,-6 0,-1 0,-1 0,-2l21 -32c0,-1 1,-1 2,-1 4,0 8,2 12,6 2,2 3,4 3,6 0,0 0,1 -1,1l-20 33z"/>
   <path id="4" class="fil0" d="M1367 444c3,1 6,2 9,4 2,-3 4,-6 7,-11 4,-5 9,-4 16,2 2,2 3,4 4,6 4,6 2,26 -8,60 0,3 -1,5 -2,7 15,-9 31,-18 46,-27 7,-4 12,-7 15,-9 2,-2 6,-1 10,3 1,0 1,1 2,1 4,4 5,7 4,10 0,0 -1,0 -1,0 -3,3 -8,6 -15,9 -29,17 -52,32 -70,43 -19,58 -40,104 -61,138 -8,12 -15,22 -22,29 -18,19 -35,20 -51,5 -47,-41 -11,-101 109,-180 1,-1 4,-3 8,-6 9,-23 14,-42 18,-56 -22,29 -41,46 -55,51 -15,5 -25,2 -31,-10 -2,-3 -3,-7 -4,-10 -3,-16 2,-30 15,-42 12,-11 26,-16 43,-18 5,0 10,0 14,1zm1 14c-13,0 -25,4 -37,13 -13,10 -19,21 -19,33 0,3 0,5 1,7 1,4 16,-9 46,-42 5,-6 8,-10 9,-11zm-83 237c21,-22 43,-63 67,-125 2,-3 3,-6 4,-9 -56,39 -90,73 -104,101 -10,19 -8,35 5,46l1 1c5,2 12,0 21,-8 2,-2 4,-4 6,-6z"/>
   <path id="5" class="fil0" d="M1470 443c1,-1 2,-2 3,-2 3,0 7,2 11,7 2,2 3,4 3,6 0,0 0,1 0,1 0,0 -9,17 -25,50 31,-31 52,-48 64,-53 1,0 2,-1 3,-1 2,-1 4,-1 6,-1 7,0 14,4 19,10 4,5 6,13 6,25 0,4 -1,14 -2,30 -1,2 -1,4 -1,4 0,1 1,2 1,2 0,0 0,1 1,1 5,0 25,-13 60,-39 5,-4 7,-6 9,-7 0,0 1,-1 1,-1 3,0 6,3 10,8 1,3 2,5 2,7 0,1 0,2 -1,3 -16,14 -28,22 -34,27 -15,9 -28,14 -38,14 -6,0 -11,-2 -16,-5 -7,-6 -11,-15 -11,-28 0,-4 0,-10 1,-17 1,-7 1,-12 1,-15l0 -3c-10,2 -29,17 -57,45 -22,21 -35,33 -38,36 -6,5 -10,7 -12,7 -9,-1 -14,-5 -14,-13 0,-4 16,-36 48,-98z"/>
  </g>
 </g>
</svg>
